HIERARCHY
ROOT hip
{
	OFFSET 0.000000 0.000000 0.000000
	CHANNELS 6 Xposition Yposition Zposition Xrotation Zrotation Yrotation 
	JOINT abdomen
	{
		OFFSET 0.000000 3.422050 0.000000
		CHANNELS 3 Xrotation Zrotation Yrotation 
		JOINT chest
		{
			OFFSET 0.000000 8.486693 -0.684411
			CHANNELS 3 Xrotation Zrotation Yrotation 
			JOINT neck
			{
				OFFSET 0.000000 10.266162 -0.273764
				CHANNELS 3 Xrotation Zrotation Yrotation 
				JOINT head
				{
					OFFSET 0.000000 3.148285 0.000000
					CHANNELS 3 Xrotation Zrotation Yrotation 
					End Site
					{
						OFFSET 0.000000 3.148289 0.000000
					}
				}
			}
			JOINT lCollar
			{
				OFFSET 3.422053 6.707223 -0.821293
				CHANNELS 3 Yrotation Zrotation Xrotation 
				JOINT lShldr
				{
					OFFSET 3.285171 0.000000 0.000000
					CHANNELS 3 Zrotation Yrotation Xrotation 
					JOINT lForeArm
					{
						OFFSET 10.129278 0.000000 0.000000
						CHANNELS 3 Yrotation Zrotation Xrotation 
						JOINT lHand
						{
							OFFSET 8.486692 0.000000 0.000000
							CHANNELS 3 Zrotation Yrotation Xrotation 
							End Site
							{
								OFFSET 4.106464 0.000000 0.000000
							}
						}
					}
				}
			}
			JOINT rCollar
			{
				OFFSET -3.558935 6.707223 -0.821293
				CHANNELS 3 Yrotation Zrotation Xrotation 
				JOINT rShldr
				{
					OFFSET -3.148289 0.000000 0.000000
					CHANNELS 3 Zrotation Yrotation Xrotation 
					JOINT rForeArm
					{
						OFFSET -10.266159 0.000000 0.000000
						CHANNELS 3 Yrotation Zrotation Xrotation 
						JOINT rHand
						{
							OFFSET -8.349810 0.000000 0.000000
							CHANNELS 3 Zrotation Yrotation Xrotation 
							End Site
							{
								OFFSET -4.106464 0.000000 0.000000
							}
						}
					}
				}
			}
		}
	}
	JOINT lThigh
	{
		OFFSET 5.338403 -1.642589 1.368821
		CHANNELS 3 Xrotation Zrotation Yrotation 
		JOINT lShin
		{
			OFFSET -2.053232 -20.121670 0.000000
			CHANNELS 3 Xrotation Zrotation Yrotation 
			JOINT lFoot
			{
				OFFSET 0.000000 -19.300380 -1.231939
				CHANNELS 3 Xrotation Yrotation Zrotation 
				End Site
				{
					OFFSET 0.000000 -2.463878 4.653993
				}
			}
		}
	}
	JOINT rThigh
	{
		OFFSET -5.338403 -1.642589 1.368821
		CHANNELS 3 Xrotation Zrotation Yrotation 
		JOINT rShin
		{
			OFFSET 2.053232 -20.121670 0.000000
			CHANNELS 3 Xrotation Zrotation Yrotation 
			JOINT rFoot
			{
				OFFSET 0.000000 -19.300380 -1.231939
				CHANNELS 3 Xrotation Yrotation Zrotation 
				End Site
				{
					OFFSET 0.000000 -2.463878 4.653993
				}
			}
		}
	}
}
MOTION
Frames: 19
Frame Time: 0.033264
0.000000 43.528500 0.000000 0.000000 0.000000 0.000000 0.000000 0.000000 0.000000 0.000000 0.000000 0.000000 0.000000 0.000000 0.000000 0.000000 0.000000 0.000000 0.000000 0.000000 0.000000 0.000000 0.000000 0.000000 0.000000 0.000000 0.000000 0.000000 0.000000 0.000000 0.000000 0.000000 0.000000 0.000000 0.000000 0.000000 0.000000 0.000000 0.000000 0.000000 0.000000 0.000000 0.000000 0.000000 0.000000 0.000000 0.000000 0.000000 0.000000 0.000000 0.000000 0.000000 0.000000 0.000000 0.000000 0.000000 0.000000 0.000000 0.000000 0.000000 
-0.000000 12.995491 58.996437 0.012240 -0.012240 180.000000 71.254814 -0.546416 -0.501303 19.368795 0.360743 -0.440433 -11.010101 0.000000 0.000000 -4.003257 0.000000 0.000000 33.483398 -11.620088 -70.354073 -83.362885 -34.360874 21.233938 -100.597488 -7.594368 54.598621 6.208632 14.777418 -17.091959 -46.916630 10.536352 -44.277973 99.630005 32.802132 30.643700 109.189697 -1.426738 -3.333426 7.845978 -58.689610 -16.980091 -54.963085 8.259420 -0.760431 149.076401 5.589597 0.136437 55.471035 7.014373 5.697695 -54.980427 -8.261411 0.727218 149.082169 -5.616373 -0.154741 55.478584 -7.035175 -5.698458 
-0.000000 12.995491 58.996437 0.012240 -0.012240 180.000000 71.182091 -0.546978 -0.502131 20.977140 0.360813 -0.440611 -13.521428 0.000000 0.000000 -2.547107 0.000000 0.000000 34.377350 -13.207423 -72.254074 -83.377769 -34.374825 21.251257 -101.078865 -7.653381 54.565411 5.632336 15.588804 -18.503260 -48.613213 12.094316 -45.378029 99.839882 32.856476 30.963116 109.849831 -1.261152 -3.269873 7.845978 -58.689602 -16.980091 -54.963085 8.259420 -0.760431 149.076401 5.589597 0.136437 55.471035 7.014373 5.697695 -54.980427 -8.261411 0.727218 149.082169 -5.616373 -0.154741 55.478592 -7.035176 -5.698457 
-0.000000 12.995491 58.996437 0.012240 -0.012240 180.000000 71.109383 -0.547541 -0.502959 22.589005 0.360888 -0.440788 -16.046331 0.000000 0.000000 -1.088352 0.000000 0.000000 35.227032 -14.831468 -74.151634 -83.392639 -34.388763 21.268578 -101.560448 -7.712123 54.531696 5.031744 16.387880 -19.931774 -50.299793 13.693345 -46.443542 100.050255 32.909832 31.282984 110.509987 -1.094779 -3.208213 7.845978 -58.689610 -16.980091 -54.963085 8.259420 -0.760431 149.076401 5.589597 0.136437 55.471039 7.014373 5.697695 -54.980431 -8.261411 0.727218 149.082169 -5.616373 -0.154741 55.478584 -7.035175 -5.698458 
-0.000000 12.995491 58.996437 0.012240 -0.012240 180.000000 71.036659 -0.548105 -0.503785 24.203760 0.360969 -0.440963 -18.582453 0.000000 0.000000 0.372544 0.000000 0.000000 36.030247 -16.488802 -76.047028 -83.407509 -34.402699 21.285906 -102.042198 -7.770597 54.497475 4.406858 17.173616 -21.377512 -51.976128 15.330519 -47.472759 100.261116 32.962204 31.603285 111.170151 -0.927654 -3.148458 7.845978 -58.689602 -16.980091 -54.963085 8.259420 -0.760431 149.076401 5.589597 0.136437 55.471035 7.014373 5.697696 -54.980431 -8.261411 0.727218 149.082169 -5.616373 -0.154741 55.478592 -7.035176 -5.698457 
-0.000000 12.995491 58.996437 0.012240 -0.012240 180.000000 70.963928 -0.548670 -0.504611 25.820774 0.361054 -0.441136 -21.127365 0.000000 0.000000 1.835107 0.000000 0.000000 36.784847 -18.175838 -77.940727 -83.422394 -34.416637 21.303234 -102.524117 -7.828789 54.462742 3.757734 17.944969 -22.840414 -53.642109 17.002718 -48.463951 100.472443 33.013588 31.924011 111.830254 -0.759810 -3.090620 7.845978 -58.689617 -16.980093 -54.963081 8.259420 -0.760431 149.076401 5.589597 0.136437 55.471035 7.014372 5.697695 -54.980427 -8.261411 0.727218 149.082169 -5.616373 -0.154741 55.478584 -7.035175 -5.698458 
-0.000000 12.995491 58.996437 0.012240 -0.012240 180.000000 70.891190 -0.549236 -0.505436 27.439388 0.361144 -0.441307 -23.678602 0.000000 0.000000 3.298865 0.000000 0.000000 37.488735 -19.888828 -79.833519 -83.437302 -34.430569 21.320580 -103.006180 -7.886690 54.427521 3.084488 18.700932 -24.320389 -55.297890 18.706678 -49.415504 100.684258 33.063976 32.245163 112.490311 -0.591280 -3.034713 7.845978 -58.689610 -16.980091 -54.963085 8.259420 -0.760431 149.076401 5.589596 0.136437 55.471035 7.014373 5.697695 -54.980423 -8.261411 0.727218 149.082153 -5.616373 -0.154741 55.478584 -7.035175 -5.698458 
-0.000000 12.995491 58.996437 0.012240 -0.012240 180.000000 70.818459 -0.549803 -0.506261 29.058992 0.361239 -0.441475 -26.233644 0.000000 0.000000 4.763339 0.000000 0.000000 38.139828 -21.623907 -81.726410 -83.452202 -34.444496 21.337931 -103.488365 -7.944293 54.391785 2.387303 19.440474 -25.817257 -56.943798 20.438995 -50.325832 100.896538 33.113380 32.566734 113.150230 -0.422100 -2.980747 7.845977 -58.689610 -16.980089 -54.963085 8.259420 -0.760431 149.076401 5.589597 0.136437 55.471035 7.014373 5.697695 -54.980427 -8.261411 0.727218 149.082169 -5.616373 -0.154741 55.478584 -7.035175 -5.698458 
-0.000000 12.995491 58.996437 0.012240 -0.012240 180.000000 70.745705 -0.550371 -0.507085 30.678905 0.361339 -0.441641 -28.789955 0.000000 0.000000 6.228055 0.000000 0.000000 38.736061 -23.377100 -83.620583 -83.467110 -34.458420 21.355288 -103.970673 -8.001615 54.355564 1.666424 20.162592 -27.330786 -58.580410 22.196188 -51.193432 101.109245 33.161766 32.888683 113.810020 -0.252304 -2.928732 7.845978 -58.689610 -16.980091 -54.963085 8.259420 -0.760431 149.076401 5.589597 0.136437 55.471035 7.014373 5.697696 -54.980427 -8.261411 0.727218 149.082153 -5.616373 -0.154741 55.478584 -7.035175 -5.698458 
-0.000000 12.995491 58.996437 0.012240 -0.012240 180.000000 70.672981 -0.550941 -0.507908 32.298500 0.361443 -0.441803 -31.344995 0.000000 0.000000 7.692528 0.000000 0.000000 39.275356 -25.144371 -85.517525 -83.482025 -34.472332 21.372648 -104.453064 -8.058619 54.318851 0.922174 20.866312 -28.860682 -60.208454 23.974661 -52.016777 101.322388 33.209167 33.211025 114.469612 -0.081926 -2.878678 7.845978 -58.689610 -16.980091 -54.963089 8.259420 -0.760431 149.076401 5.589597 0.136437 55.471035 7.014373 5.697696 -54.980427 -8.261411 0.727218 149.082153 -5.616373 -0.154741 55.478584 -7.035176 -5.698458 
-0.000000 12.995491 58.996437 0.012240 -0.012240 180.000000 70.600220 -0.551511 -0.508731 33.917122 0.361552 -0.441963 -33.896229 0.000000 0.000000 9.156284 0.000000 0.000000 39.755615 -26.921629 -87.418915 -83.496948 -34.486248 21.390022 -104.935532 -8.115314 54.281643 0.154945 21.550659 -30.406557 -61.828903 25.770788 -52.794399 101.535950 33.255547 33.533733 115.128998 0.088998 -2.830594 7.845979 -58.689617 -16.980093 -54.963089 8.259420 -0.760431 149.076401 5.589597 0.136436 55.471035 7.014373 5.697695 -54.980427 -8.261411 0.727218 149.082153 -5.616373 -0.154741 55.478592 -7.035176 -5.698457 
-0.000000 12.995491 58.996437 0.012240 -0.012240 180.000000 70.527481 -0.552083 -0.509552 35.534134 0.361666 -0.442119 -36.441151 0.000000 0.000000 10.618850 0.000000 0.000000 40.174717 -28.704792 -89.326767 -83.511887 -34.500164 21.407404 -105.418068 -8.171691 54.243965 -0.634790 22.214712 -31.967970 -63.442963 27.580925 -53.524799 101.749954 33.300934 33.856823 115.788116 0.260434 -2.784487 7.845978 -58.689602 -16.980091 -54.963085 8.259420 -0.760431 149.076416 5.589596 0.136437 55.471031 7.014372 5.697695 -54.980423 -8.261410 0.727218 149.082169 -5.616373 -0.154741 55.478580 -7.035174 -5.698456 
-0.000000 12.995491 58.996437 0.012240 -0.012240 180.000000 70.454727 -0.552655 -0.510374 37.148884 0.361783 -0.442272 -38.977268 0.000000 0.000000 12.079745 0.000000 0.000000 40.530457 -30.489771 -91.243256 -83.526833 -34.514080 21.424797 -105.900665 -8.227752 54.205807 -1.446478 22.857565 -33.544392 -65.052002 29.401396 -54.206429 101.964340 33.345306 34.180267 116.446983 0.432346 -2.740366 7.845978 -58.689610 -16.980091 -54.963085 8.259420 -0.760431 149.076401 5.589596 0.136437 55.471031 7.014372 5.697695 -54.980427 -8.261411 0.727218 149.082153 -5.616373 -0.154741 55.478584 -7.035175 -5.698456 
-0.000000 12.995491 58.996437 0.012240 -0.012240 180.000000 70.381958 -0.553229 -0.511194 38.760746 0.361905 -0.442421 -41.502174 0.000000 0.000000 13.538500 0.000000 0.000000 41.196735 -32.199650 -93.145737 -83.541786 -34.527977 21.442186 -106.383286 -8.283476 54.167175 -2.279486 23.478348 -35.135216 -66.657677 31.228592 -54.837746 102.179138 33.388657 34.504044 117.105476 0.604699 -2.698237 7.845979 -58.689617 -16.980093 -54.963085 8.259420 -0.760431 149.076401 5.589597 0.136437 55.471035 7.014373 5.697695 -54.980427 -8.261411 0.727218 149.082169 -5.616373 -0.154741 55.478584 -7.035175 -5.698457 
-0.000000 12.995491 58.996437 0.012240 -0.012240 180.000000 70.309204 -0.553804 -0.512014 40.369102 0.362030 -0.442566 -44.013500 0.000000 0.000000 14.994649 0.000000 0.000000 41.807358 -33.927525 -95.061638 -83.556747 -34.541878 21.459587 -106.865898 -8.338867 54.128059 -3.133091 24.076250 -36.739738 -68.261856 33.058929 -55.417110 102.394295 33.430984 34.828152 117.763634 0.777457 -2.658105 7.845976 -58.689602 -16.980087 -54.963085 8.259420 -0.760431 149.076401 5.589597 0.136437 55.471035 7.014373 5.697696 -54.980427 -8.261411 0.727218 149.082169 -5.616373 -0.154741 55.478584 -7.035175 -5.698458 
-0.000000 12.995491 58.996437 0.012240 -0.012240 180.000000 70.236443 -0.554380 -0.512833 38.975418 0.361921 -0.442440 -41.837849 0.000000 0.000000 13.732815 0.000000 0.000000 41.537231 -32.378326 -93.380539 -83.571716 -34.555775 21.476999 -106.447639 -8.290882 54.161991 -2.392126 23.559410 -35.348373 -66.871620 31.472536 -54.918026 102.207802 33.394360 34.547241 117.193260 0.627711 -2.692770 7.845978 -58.689610 -16.980091 -54.963085 8.259420 -0.760431 149.076401 5.589597 0.136437 55.471035 7.014373 5.697695 -54.980431 -8.261411 0.727218 149.082169 -5.616373 -0.154741 55.478588 -7.035176 -5.698458 
-0.000000 12.995491 58.996437 0.012240 -0.012240 180.000000 70.163681 -0.554956 -0.513651 37.579021 0.361815 -0.442312 -39.651768 0.000000 0.000000 12.468974 0.000000 0.000000 41.216858 -30.828018 -91.709618 -83.586678 -34.569668 21.494413 -106.029358 -8.242642 54.195549 -1.666557 23.025295 -33.967232 -65.480438 29.888144 -54.379765 102.021576 33.356956 34.266563 116.622612 0.478265 -2.728937 7.845978 -58.689610 -16.980091 -54.963085 8.259420 -0.760431 149.076401 5.589597 0.136437 55.471039 7.014373 5.697695 -54.980427 -8.261411 0.727218 149.082169 -5.616373 -0.154741 55.478592 -7.035176 -5.698458 
-0.000000 12.995491 58.996437 0.012240 -0.012240 180.000000 70.090897 -0.555534 -0.514469 36.180336 0.361712 -0.442180 -37.456787 0.000000 0.000000 11.203434 0.000000 0.000000 40.848007 -29.279314 -90.047234 -83.601654 -34.583561 21.511837 -105.611115 -8.194155 54.228760 -0.956865 22.474442 -32.596771 -64.087082 28.308075 -53.803387 101.835663 33.318806 33.986160 116.051704 0.329144 -2.766600 7.845977 -58.689598 -16.980087 -54.963085 8.259420 -0.760431 149.076401 5.589596 0.136437 55.471031 7.014372 5.697696 -54.980423 -8.261410 0.727218 149.082169 -5.616373 -0.154741 55.478580 -7.035175 -5.698458 
-0.000000 12.995491 58.996437 0.012240 -0.012240 180.000000 70.018127 -0.556113 -0.515286 34.779770 0.361612 -0.442047 -35.254463 0.000000 0.000000 9.936499 0.000000 0.000000 40.432335 -27.734888 -88.391769 -83.616631 -34.597443 21.529264 -105.192886 -8.145422 54.261608 -0.263480 21.907404 -31.237413 -62.690449 26.734686 -53.189919 101.650032 33.279877 33.706009 115.480576 0.180369 -2.805758 7.845978 -58.689610 -16.980091 -54.963085 8.259420 -0.760431 149.076401 5.589596 0.136436 55.471035 7.014373 5.697695 -54.980423 -8.261410 0.727217 149.082153 -5.616373 -0.154741 55.478584 -7.035175 -5.698458 
